<svg xmlns="http://www.w3.org/2000/svg" viewBox="0 0 1200 700">
  <defs>
    <linearGradient id="bg" x1="0" y1="0" x2="1" y2="1">
      <stop offset="0%" stop-color="#efe2c4"/>
      <stop offset="100%" stop-color="#d7bb80"/>
    </linearGradient>
  </defs>
  <rect width="1200" height="700" fill="url(#bg)"/>
  <rect x="120" y="120" width="960" height="460" rx="28" fill="#fff8ea" opacity="0.9"/>
  <ellipse cx="760" cy="360" rx="210" ry="150" fill="#f6ead5"/>
  <circle cx="760" cy="360" r="110" fill="#d9b16f"/>
  <circle cx="760" cy="360" r="82" fill="#6c3f21"/>
  <path d="M280 420c0-66 54-120 120-120h62c34 0 62 28 62 62v70c0 34-28 62-62 62H340c-33 0-60-27-60-60v-14z" fill="#bf8f4d"/>
  <path d="M518 352h46c28 0 50 22 50 50v40c0 28-22 50-50 50h-16" fill="none" stroke="#bf8f4d" stroke-width="18" stroke-linecap="round"/>
  <text x="146" y="174" fill="#8a682d" font-family="Georgia, serif" font-size="28">Boccato di Cardinale</text>
  <text x="146" y="530" fill="#1a1208" font-family="Georgia, serif" font-size="58">Desayuno</text>
</svg>
